<svg width="20" height="13" viewBox="0 0 20 13" fill="none" xmlns="http://www.w3.org/2000/svg">
<path d="M10 0.75V2.40517M3.6 6.12931C3.6 6.12931 3.6 2.40517 3.6 1.99138C3.6 1.57759 3.6 0.75 5.2 0.75C6.8 0.75 10 0.75 10 0.75C10 0.75 14.0889 0.75 15.3333 0.75C16.5778 0.75 16.5778 1.57759 16.5778 1.99138C16.5778 2.40517 16.5778 6.12931 16.5778 6.12931M2 12.75V10.0603C2 10.0603 2 8.19828 2 7.37069C2 6.5431 2.53333 6.12931 3.6 6.12931M3.6 6.12931H10M10 6.12931H16.5778M10 6.12931C10 6.12931 10 4.86833 10 4.06034M16.5778 6.12931C17.4667 6.12931 18 6.5431 18 7.37069C18 8.19828 18 10.0603 18 10.0603M18 10.0603V12.75M18 10.0603H2" stroke="currentColor" stroke-width="1.5"/>
</svg>
